<?xml version="1.0" standalone="no"?>
<!DOCTYPE svg PUBLIC "-//W3C//DTD SVG 1.1//EN" "http://www.w3.org/Graphics/SVG/1.1/DTD/svg11.dtd">
<svg xmlns="http://www.w3.org/2000/svg" version="1.1" viewBox="0 0 595.28 185.48" width="595.280029296875" height="185.47999572753906">
  <defs>
    <style>
      .cls-1 {
        fill: #414042;
      }

      .cls-2 {
        fill: #ffd32c;
      }
    </style>
  </defs>
  <!-- Generator: Adobe Illustrator 28.6.0, SVG Export Plug-In . SVG Version: 1.2.0 Build 709)  -->
  <g>
    <g id="Layer_1">
      <g>
        <path class="cls-1" d="M296.52,51.15c-18.66,0-33.83,15.18-33.83,33.83s15.17,33.84,33.83,33.84,33.84-15.18,33.84-33.84-15.18-33.83-33.84-33.83ZM291.51,76.18l-14.18,8.8,14.18,8.81v11.65l-20.64-13.81v-13.29l20.64-13.82v11.66ZM301.53,105.44v-11.65l14.18-8.81-14.18-8.8v-11.66l20.64,13.82v13.29l-20.64,13.81Z"/>
        <path class="cls-2" d="M296.52,37.62c-26.12,0-47.36,21.25-47.36,47.36s21.24,47.38,47.36,47.38,47.36-21.25,47.36-47.38-21.24-47.36-47.36-47.36ZM296.52,124.62c-21.85,0-39.64-17.77-39.64-39.64s17.78-39.63,39.64-39.63,39.64,17.77,39.64,39.63-17.78,39.64-39.64,39.64Z"/>
      </g>
    </g>
  </g>
</svg>