<?xml version="1.0" standalone="no"?>
<!DOCTYPE svg PUBLIC "-//W3C//DTD SVG 1.1//EN" "http://www.w3.org/Graphics/SVG/1.1/DTD/svg11.dtd">
<svg xmlns="http://www.w3.org/2000/svg" version="1.1" viewBox="0 0 595.28 239.33" width="595.280029296875" height="239.3300018310547">
  <defs>
    <style>
      .cls-1 {
        fill: #414042;
      }

      .cls-2 {
        fill: #ffd32c;
      }
    </style>
  </defs>
  <!-- Generator: Adobe Illustrator 28.6.0, SVG Export Plug-In . SVG Version: 1.2.0 Build 709)  -->
  <g>
    <g id="Layer_1">
      <g>
        <path class="cls-1" d="M94.73,95.49c-18.66,0-33.83,15.18-33.83,33.83s15.17,33.84,33.83,33.84,33.84-15.18,33.84-33.84-15.18-33.83-33.84-33.83ZM89.72,120.52l-14.18,8.8,14.18,8.81v11.65l-20.64-13.81v-13.29l20.64-13.82v11.66ZM99.73,149.78v-11.65l14.18-8.81-14.18-8.8v-11.66l20.64,13.82v13.29l-20.64,13.81Z"/>
        <path class="cls-2" d="M94.73,81.96c-26.12,0-47.36,21.25-47.36,47.36s21.24,47.38,47.36,47.38,47.36-21.25,47.36-47.38-21.24-47.36-47.36-47.36ZM94.73,168.96c-21.85,0-39.64-17.77-39.64-39.64s17.78-39.63,39.64-39.63,39.64,17.77,39.64,39.63-17.78,39.64-39.64,39.64Z"/>
        <g>
          <path class="cls-1" d="M195.33,157.3c-2.34.94-4.6,1.64-6.79,2.1-2.19.46-4.47.69-6.83.69-3.79,0-7.14-.56-10.06-1.67s-5.38-2.77-7.38-4.98c-2-2.2-3.52-4.94-4.55-8.2-1.04-3.27-1.55-7.06-1.55-11.39s.56-8.38,1.69-11.83c1.13-3.45,2.74-6.37,4.84-8.75,2.1-2.38,4.64-4.19,7.64-5.44,3-1.25,6.36-1.87,10.1-1.87,1.21,0,2.34.03,3.41.08,1.06.05,2.1.16,3.12.3,1.02.15,2.06.34,3.1.58,1.05.24,2.14.55,3.27.93v9.84c-2.28-1.07-4.46-1.84-6.53-2.3-2.07-.46-3.95-.69-5.64-.69-2.5,0-4.64.45-6.41,1.35-1.77.9-3.23,2.16-4.37,3.79-1.14,1.63-1.98,3.56-2.52,5.8-.54,2.24-.81,4.71-.81,7.4,0,2.85.28,5.4.83,7.64.55,2.24,1.4,4.15,2.56,5.7,1.16,1.56,2.63,2.75,4.43,3.57,1.8.82,3.94,1.23,6.41,1.23.89,0,1.85-.09,2.88-.26,1.03-.17,2.08-.4,3.14-.69,1.06-.28,2.11-.62,3.14-1.01,1.03-.39,2-.79,2.88-1.19v9.27Z"/>
          <path class="cls-1" d="M242.74,138.56c0,3.23-.46,6.17-1.37,8.85-.91,2.67-2.23,4.97-3.95,6.87-1.72,1.91-3.83,3.39-6.33,4.43-2.5,1.05-5.35,1.57-8.54,1.57s-5.75-.44-8.14-1.33c-2.39-.89-4.42-2.21-6.09-3.97-1.67-1.76-2.94-3.96-3.83-6.61s-1.33-5.73-1.33-9.25c0-3.25.46-6.21,1.39-8.87s2.26-4.93,3.99-6.81c1.73-1.88,3.85-3.34,6.35-4.37,2.5-1.03,5.32-1.55,8.46-1.55s5.79.45,8.18,1.35c2.39.9,4.42,2.24,6.09,4.01,1.67,1.77,2.94,3.97,3.81,6.59s1.31,5.65,1.31,9.09ZM232.5,138.8c0-4.25-.8-7.44-2.4-9.57-1.6-2.14-3.96-3.2-7.07-3.2-1.72,0-3.18.34-4.39,1.01-1.21.67-2.2,1.59-2.98,2.76s-1.35,2.53-1.71,4.09c-.36,1.56-.54,3.22-.54,5,0,4.27.86,7.49,2.58,9.65,1.72,2.16,4.07,3.25,7.05,3.25,1.64,0,3.06-.33,4.27-.99,1.21-.66,2.19-1.57,2.94-2.74.75-1.17,1.32-2.55,1.69-4.13.38-1.58.56-3.29.56-5.12Z"/>
          <path class="cls-1" d="M277,159.36l-.24-6.05c-.86,1.05-1.75,2-2.66,2.86-.91.86-1.89,1.59-2.94,2.2-1.05.6-2.17,1.07-3.37,1.41-1.2.34-2.52.5-3.97.5-2.42,0-4.57-.48-6.45-1.45-1.88-.97-3.46-2.34-4.74-4.13-1.28-1.79-2.25-3.96-2.92-6.51-.67-2.55-1.01-5.4-1.01-8.55,0-3.76.53-7.02,1.59-9.77,1.06-2.75,2.53-5.04,4.41-6.85s4.11-3.16,6.69-4.03c2.58-.87,5.39-1.31,8.42-1.31,1.02,0,2.05.07,3.08.2,1.03.13,1.96.31,2.76.52v-16h9.84v56.96h-8.51ZM259.02,139.2c0,2.26.15,4.19.46,5.78.31,1.6.77,2.91,1.37,3.93.6,1.02,1.35,1.77,2.24,2.24.89.47,1.89.71,3.02.71,1.67,0,3.25-.67,4.76-2.02,1.5-1.34,3.1-3.18,4.8-5.52v-17.9c-.78-.3-1.74-.54-2.88-.73-1.14-.19-2.29-.28-3.45-.28-1.59,0-3.01.32-4.27.97-1.26.65-2.34,1.56-3.25,2.74-.9,1.18-1.59,2.63-2.08,4.33-.48,1.71-.73,3.62-.73,5.74Z"/>
          <path class="cls-1" d="M332.3,135.74c0,.67-.02,1.55-.06,2.62-.04,1.08-.1,2.08-.18,3.02h-26.93c0,1.8.28,3.39.83,4.76s1.33,2.52,2.34,3.45c1.01.93,2.22,1.63,3.63,2.12,1.41.48,2.98.73,4.7.73,1.99,0,4.12-.15,6.39-.46,2.27-.31,4.63-.81,7.07-1.51v7.82c-1.05.3-2.19.56-3.43.81s-2.5.46-3.79.65c-1.29.19-2.59.33-3.91.42-1.32.09-2.59.14-3.83.14-3.12,0-5.91-.44-8.38-1.33-2.47-.89-4.57-2.2-6.29-3.93s-3.04-3.88-3.95-6.43c-.91-2.55-1.37-5.51-1.37-8.87s.46-6.36,1.37-9.09c.91-2.73,2.2-5.06,3.87-7.01,1.67-1.95,3.69-3.45,6.07-4.52,2.38-1.06,5.03-1.59,7.96-1.59s5.47.45,7.7,1.35c2.23.9,4.1,2.16,5.6,3.77,1.5,1.61,2.65,3.53,3.43,5.76.78,2.23,1.17,4.68,1.17,7.34ZM322.31,134.33c.03-1.61-.17-3.02-.6-4.21-.43-1.2-1.01-2.18-1.75-2.96-.74-.78-1.6-1.36-2.58-1.73-.98-.38-2.04-.56-3.16-.56-2.47,0-4.5.83-6.09,2.48-1.59,1.65-2.53,3.98-2.82,6.99h17.01Z"/>
          <path class="cls-2" d="M376.12,159.36h-30.31v-52.69h7.3v46.56h23.02v6.13Z"/>
          <path class="cls-2" d="M414.25,159.36l-.16-5.44c-2.2,2.18-4.44,3.75-6.71,4.72-2.27.97-4.66,1.45-7.16,1.45-2.31,0-4.29-.3-5.93-.89-1.64-.59-2.99-1.4-4.05-2.44-1.06-1.03-1.84-2.25-2.34-3.65-.5-1.4-.75-2.92-.75-4.56,0-4.06,1.51-7.24,4.54-9.53,3.02-2.3,7.49-3.45,13.4-3.45h8.38v-3.55c0-2.39-.77-4.31-2.3-5.74-1.53-1.44-3.87-2.16-7.01-2.16-2.28,0-4.54.26-6.75.77-2.22.51-4.51,1.24-6.87,2.18v-6.33c.89-.32,1.88-.64,2.96-.95,1.09-.31,2.24-.58,3.45-.83,1.21-.24,2.47-.44,3.79-.58,1.32-.15,2.65-.22,3.99-.22,2.45,0,4.65.27,6.61.81,1.96.54,3.62,1.36,4.98,2.46,1.36,1.1,2.4,2.49,3.12,4.15.73,1.67,1.09,3.63,1.09,5.89v27.89h-6.29ZM413.49,140.94h-8.91c-1.75,0-3.25.18-4.51.52-1.26.35-2.3.85-3.1,1.49-.81.65-1.4,1.42-1.79,2.32-.39.9-.58,1.91-.58,3.04,0,.78.12,1.53.36,2.24.24.71.63,1.34,1.17,1.89.54.55,1.24.99,2.1,1.31.86.32,1.91.48,3.14.48,1.61,0,3.46-.49,5.54-1.47,2.08-.98,4.28-2.53,6.59-4.66v-7.18Z"/>
          <path class="cls-2" d="M468.23,138.4c0,3.36-.46,6.36-1.39,9.01-.93,2.65-2.24,4.89-3.95,6.73-1.71,1.84-3.78,3.25-6.23,4.23-2.45.98-5.2,1.47-8.26,1.47-2.39,0-4.84-.23-7.34-.69-2.5-.46-4.97-1.18-7.42-2.18v-54.58h7.01v15.68l-.32,7.5c2.01-2.71,4.17-4.63,6.47-5.74,2.3-1.11,4.76-1.67,7.4-1.67,2.31,0,4.34.48,6.09,1.45,1.75.97,3.21,2.33,4.39,4.09,1.18,1.76,2.07,3.88,2.66,6.37.59,2.49.89,5.26.89,8.32ZM461.05,138.72c0-2.12-.15-4.07-.46-5.85-.31-1.77-.8-3.29-1.47-4.56-.67-1.26-1.53-2.25-2.58-2.96s-2.3-1.07-3.75-1.07c-.89,0-1.79.14-2.7.42-.91.28-1.86.75-2.84,1.41-.98.66-2.02,1.53-3.1,2.62-1.09,1.09-2.25,2.44-3.49,4.05v19.63c1.37.54,2.77.96,4.19,1.27,1.42.31,2.78.46,4.07.46,1.61,0,3.15-.25,4.62-.77,1.46-.51,2.75-1.36,3.87-2.56,1.11-1.2,2-2.78,2.66-4.76.66-1.98.99-4.43.99-7.36Z"/>
          <path class="cls-2" d="M497.07,120.85h-9.24v9.59h-4.04v-9.59h-9.24v-3.57h9.24v-9.52h4.04v9.52h9.24v3.57Z"/>
        </g>
      </g>
    </g>
  </g>
</svg>